<?xml version="1.0" standalone="no"?>
<!DOCTYPE svg PUBLIC "-//W3C//DTD SVG 20010904//EN"
 "http://www.w3.org/TR/2001/REC-SVG-20010904/DTD/svg10.dtd">
<svg version="1.0" xmlns="http://www.w3.org/2000/svg"
 width="573.000000pt" height="573.000000pt" viewBox="0 0 573.000000 573.000000"
 preserveAspectRatio="xMidYMid meet">
<metadata>
Created by potrace 1.14, written by Peter Selinger 2001-2017
</metadata>
<g transform="translate(0.000000,573.000000) scale(0.100000,-0.100000)"
fill="#000000" stroke="none">
<path d="M1166 4109 c-230 -32 -460 -153 -641 -334 -97 -98 -144 -168 -181
-270 -60 -165 -30 -300 95 -426 116 -115 295 -196 523 -234 l38 -6 75 114 c41
63 75 118 75 123 0 5 -32 31 -70 58 -39 27 -75 55 -80 61 -8 9 14 48 75 139
75 112 85 133 86 174 2 61 5 92 11 97 2 2 30 -14 62 -37 58 -41 58 -41 52 -82
-4 -23 -9 -51 -13 -63 -5 -23 -4 -23 97 -23 95 0 101 -1 95 -19 -3 -11 -7 -28
-9 -38 -2 -10 -10 -46 -16 -81 -7 -34 -10 -66 -6 -69 3 -4 43 -20 88 -37 77
-29 83 -33 91 -66 16 -61 29 -90 42 -90 17 0 142 91 198 144 67 64 139 163
174 237 27 58 35 80 49 144 3 11 5 52 5 90 1 250 -219 433 -586 489 -99 16
-237 17 -329 5z"/>
<path d="M1290 2694 c-70 -22 -131 -73 -168 -141 -17 -33 -33 -74 -34 -92 -1
-18 -5 -34 -8 -36 -3 -2 -54 -5 -113 -7 -59 -1 -107 -5 -107 -8 0 -9 732 -1
816 9 98 11 608 7 648 -6 16 -5 31 -14 33 -20 9 -27 -166 -93 -286 -107 -78
-9 -132 -37 -175 -89 -42 -51 -88 -77 -146 -81 -22 -2 -44 -6 -48 -11 -14 -14
93 6 134 25 22 11 53 38 70 59 35 47 91 78 158 86 152 18 310 80 304 119 -5
34 -91 45 -363 46 -170 1 -335 -6 -362 -15 -7 -3 -13 1 -14 8 -3 60 -44 150
-89 196 -63 65 -164 91 -250 65z"/>
<path d="M359 2408 c-23 -18 -33 -82 -19 -123 18 -54 51 -69 156 -72 93 -2
134 3 134 17 0 5 -15 4 -32 -1 -48 -13 -154 -11 -191 4 -47 20 -60 42 -60 97
0 78 6 81 149 77 68 -3 124 -2 124 2 0 3 -55 7 -123 9 -89 2 -126 -1 -138 -10z"/>
<path d="M630 2410 c0 -5 5 -10 10 -10 6 0 10 5 10 10 0 6 -4 10 -10 10 -5 0
-10 -4 -10 -10z"/>
<path d="M660 2411 c0 -3 18 -6 40 -6 22 -1 40 2 40 5 0 3 -18 6 -40 7 -22 0
-40 -2 -40 -6z"/>
<path d="M750 2409 c0 -3 23 -5 50 -5 28 1 50 4 50 7 0 3 -22 5 -50 5 -27 -1
-50 -4 -50 -7z"/>
<path d="M646 2232 c-3 -5 1 -9 9 -9 8 0 15 4 15 9 0 4 -4 8 -9 8 -6 0 -12 -4
-15 -8z"/>
<path d="M680 2231 c0 -5 12 -12 27 -16 16 -4 66 -29 112 -57 211 -128 304
-124 479 19 71 57 103 57 209 2 86 -45 183 -82 183 -71 0 5 -19 13 -43 19 -24
7 -70 27 -103 46 -134 75 -177 76 -259 7 -120 -102 -217 -125 -332 -80 -32 13
-65 29 -74 37 -8 7 -19 13 -23 13 -4 0 -21 9 -36 20 -40 28 -140 72 -140 61z"/>
<path d="M335 1904 c13 -13 16 -35 14 -110 -1 -52 -5 -94 -10 -94 -5 0 -9 -4
-9 -8 0 -6 92 -9 123 -3 4 0 7 11 7 24 -1 18 -2 19 -10 6 -5 -9 -21 -16 -37
-15 -26 1 -28 4 -31 49 -3 45 -2 47 22 47 15 0 26 -5 26 -11 0 -5 5 -7 10 -4
24 15 9 35 -25 35 -34 0 -35 1 -35 40 0 35 3 40 23 40 13 0 28 -5 35 -12 9 -9
12 -7 12 10 0 20 -5 22 -66 22 -60 0 -64 -1 -49 -16z"/>
<path d="M540 1893 c-57 -51 -55 -144 4 -187 20 -16 43 -21 86 -21 32 0 62 3
66 7 6 7 9 26 13 91 1 11 6 15 13 11 6 -4 8 -3 5 2 -5 8 -22 9 -72 5 -5 -1 -4
-5 3 -10 8 -5 12 -23 10 -47 -3 -36 -6 -39 -35 -42 -78 -8 -134 111 -82 171
13 15 35 28 49 29 63 2 81 -2 89 -24 l8 -23 7 23 c11 35 -1 42 -69 42 -56 0
-69 -4 -95 -27z"/>
<path d="M809 1905 c-49 -27 -68 -119 -35 -170 29 -44 101 -65 164 -49 18 5
22 13 22 46 0 22 5 48 10 58 9 17 7 19 -21 15 -31 -4 -53 -15 -31 -15 7 0 12
-16 12 -40 0 -48 -15 -58 -68 -42 -88 27 -99 168 -15 191 43 12 103 -4 104
-27 1 -10 4 -7 8 8 4 15 3 28 -3 32 -19 13 -120 8 -147 -7z"/>
<path d="M1072 1907 c-69 -39 -78 -147 -15 -197 31 -24 82 -34 128 -26 30 6
35 11 34 34 -1 16 -3 20 -6 10 -7 -27 -69 -35 -108 -13 -81 43 -73 172 12 188
36 7 91 -11 97 -31 2 -9 4 -3 3 13 -2 30 -3 30 -62 32 -35 2 -70 -3 -83 -10z"/>
<path d="M1268 1911 c11 -6 13 -34 10 -118 l-3 -110 53 2 c34 1 57 6 63 16 16
25 10 30 -17 12 -37 -24 -58 -8 -61 46 -1 36 1 41 21 41 12 0 27 -5 33 -11 7
-7 12 -4 16 10 4 19 1 21 -33 21 -37 0 -38 0 -37 40 1 36 3 40 27 40 14 0 31
-5 38 -12 9 -9 12 -7 12 10 0 21 -5 22 -67 22 -42 0 -63 -4 -55 -9z"/>
<path d="M1448 1908 c14 -14 17 -181 3 -207 -9 -16 -4 -18 57 -17 63 1 67 2
70 25 4 23 3 23 -13 7 -10 -10 -29 -16 -44 -14 -26 3 -26 3 -29 102 -2 73 1
102 10 108 8 5 -2 8 -26 8 -31 0 -37 -3 -28 -12z"/>
<path d="M1618 1911 c10 -6 13 -36 11 -116 l-2 -109 62 -3 c33 -2 61 1 61 6 0
5 3 17 7 27 6 17 5 17 -17 1 -31 -22 -57 -22 -68 1 -15 29 -8 182 9 193 10 6
0 9 -31 9 -28 0 -40 -3 -32 -9z"/>
<path d="M1795 1904 c13 -13 16 -35 14 -110 -1 -52 -5 -94 -10 -94 -5 0 -9 -4
-9 -9 0 -4 28 -8 63 -7 58 1 62 2 65 26 2 20 1 22 -7 9 -6 -9 -23 -16 -38 -15
-26 1 -28 4 -31 49 -3 44 -1 47 20 47 13 0 29 -5 36 -12 9 -9 12 -7 12 10 0
18 -6 22 -35 22 -34 0 -35 1 -35 40 0 35 3 40 23 40 13 0 28 -5 35 -12 9 -9
12 -7 12 10 0 20 -5 22 -66 22 -60 0 -64 -1 -49 -16z"/>
<path d="M1980 1813 c0 -60 -4 -113 -10 -119 -6 -6 4 -9 25 -10 34 -1 47 10
23 18 -7 3 -13 35 -15 82 l-4 79 90 -94 90 -94 1 111 c0 72 4 114 12 122 9 9
3 12 -27 12 -32 -1 -37 -3 -22 -11 14 -8 17 -24 17 -89 l0 -80 -81 88 c-45 48
-85 89 -90 90 -5 2 -9 -45 -9 -105z"/>
<path d="M2230 1898 c0 -17 3 -19 12 -10 7 7 25 12 40 12 l28 0 0 -100 c0 -70
-4 -100 -12 -100 -27 0 6 -14 37 -15 33 -2 48 9 23 17 -7 3 -12 37 -13 101
l-1 97 27 0 c15 0 31 -5 35 -11 4 -8 9 -7 15 2 17 26 8 29 -91 29 -96 0 -100
-1 -100 -22z"/>
</g>
</svg>
